<svg version="1.1" xmlns="http://www.w3.org/2000/svg" style="display: block;" viewBox="0 0 2048 481" width="1089" height="256" preserveAspectRatio="none">
<path transform="translate(0,0)" fill="rgb(14,18,35)" d="M 0 0 L 2048 0 L 2048 481 L 0 481 L 0 0 z"/>
<path transform="translate(0,0)" fill="rgb(254,254,254)" d="M 901.201 76.2225 C 985.879 67.0121 1061.99 128.194 1071.2 212.873 C 1080.4 297.552 1019.22 373.66 934.538 382.862 C 849.864 392.063 773.763 330.883 764.557 246.21 C 755.352 161.537 816.528 85.4322 901.201 76.2225 z"/>
<path transform="translate(0,0)" fill="rgb(14,18,35)" d="M 919.163 111.84 C 919.668 111.817 920.173 111.799 920.678 111.788 C 984.439 110.273 1037.86 163.517 1039.22 226.475 C 1039.67 258.667 1027.35 289.726 1004.96 312.862 C 979.808 338.921 954.34 345.452 919.168 349.078 L 919.163 111.84 z"/>
<path transform="translate(0,0)" fill="rgb(254,254,254)" d="M 569.743 85.3681 C 590.472 83.5991 607.831 86.1631 627.824 90.8543 C 598.794 103.925 578.148 119.046 562.635 147.86 C 548.184 175.246 545.185 207.246 554.296 236.841 C 563.463 266.472 583.905 291.315 611.217 306.015 C 646.233 324.783 676.608 322.29 712.866 311.28 C 694.166 338.932 677.966 353.714 648.871 369.243 C 632.58 376.497 619.746 380.22 601.838 382.53 C 563.017 387.274 523.889 376.538 492.925 352.648 C 405.353 284.853 419.39 148.327 518.668 99.8541 C 535.016 91.8721 551.748 87.5622 569.743 85.3681 z"/>
<path transform="translate(0,0)" fill="rgb(254,254,254)" d="M 316.537 77.2189 C 333.38 77.1342 350.224 77.2146 367.066 77.46 L 367.053 371.829 L 333.237 371.861 C 332.605 289.524 332.9 207.183 334.124 124.854 L 336.891 108.356 C 331.961 115.133 305.246 187.007 300.692 198.97 L 234.05 371.908 L 205.625 371.867 C 195.064 347.379 183.147 312.78 173.259 286.817 L 105.441 108.418 C 108.288 146.702 107.698 185.499 107.703 223.869 L 107.567 371.842 L 76.2353 371.878 C 74.7898 275.61 75.9232 173.786 76.2949 77.2857 L 126.919 77.2394 L 189.925 242.558 C 199.465 267.639 210.456 299.045 221.11 323.247 C 232.059 298.712 245.445 260.903 255.363 235.061 L 316.537 77.2189 z"/>
<path transform="translate(0,0)" fill="rgb(254,254,254)" d="M 1318.89 77.2825 C 1329.85 77.1897 1340.81 77.253 1351.77 77.4725 L 1351.79 371.771 L 1310.87 371.906 C 1307.32 365.088 1298.71 352.532 1294.34 345.815 L 1263.31 298.139 C 1226.32 241.302 1185.58 180.896 1150.06 123.38 C 1149.4 143.948 1152.2 163.095 1152.28 182.999 L 1152.33 371.791 L 1120.98 371.836 L 1121.1 77.3064 C 1133.99 77.211 1146.88 77.2349 1159.77 77.378 L 1321.04 325.588 L 1318.89 77.2825 z"/>
<path transform="translate(0,0)" fill="rgb(254,254,254)" d="M 654.265 154.628 C 680.592 147.673 707.604 163.235 714.794 189.498 C 721.984 215.762 706.665 242.912 680.467 250.337 C 653.935 257.856 626.363 242.299 619.081 215.701 C 611.8 189.103 627.603 161.671 654.265 154.628 z"/>
<path transform="translate(0,0)" fill="rgb(216,202,165)" d="M 1626.04 202.444 C 1629.83 203.002 1629.26 202.385 1631.96 204.626 C 1633.1 207.67 1630.95 212.609 1629.88 215.938 C 1650.72 215.372 1663.98 221.742 1662.48 245.677 C 1660.86 271.586 1637.63 292.653 1611.62 279.881 C 1608.63 289.951 1605.82 300.075 1603.19 310.246 C 1606.5 310.756 1612.17 311.107 1614.04 313.471 L 1612.76 315.431 C 1607.57 315.742 1587.22 318.21 1584.06 314.634 C 1586.36 311.579 1587.93 311.575 1591.75 309.831 C 1600.09 286.139 1609.47 250.252 1616.84 225.173 C 1613.4 228.559 1609.02 234.082 1604.06 233.798 L 1604.04 231.763 C 1607.92 224.855 1611.66 223.416 1618.43 219.175 C 1620.5 212.389 1621.33 207.688 1626.04 202.444 z"/>
<path transform="translate(0,0)" fill="rgb(14,18,35)" d="M 1628.6 220.197 C 1663.8 219.172 1652.98 262.155 1634.34 276.463 C 1627.67 279.028 1618.21 280.587 1614.1 273.368 C 1614.67 266.901 1626.05 229.123 1628.6 220.197 z"/>
<path transform="translate(0,0)" fill="rgb(216,202,165)" d="M 1513.97 179.327 C 1514.99 178.889 1515.81 179.132 1516.93 179.277 C 1520.41 182.607 1523.43 199.718 1520.56 202.929 C 1513.81 201.569 1513.45 191.815 1509.02 187.821 C 1504.05 183.336 1485.55 184.738 1478.47 184.815 C 1474.8 199.691 1470.39 214.914 1466.3 229.721 C 1472.69 229.851 1479.99 230.021 1486.34 229.9 C 1499.37 229.653 1489.14 218.79 1498.21 218.569 C 1500.66 221.122 1505 241.772 1502.47 244.792 C 1499.74 244.083 1494.01 237.113 1491.63 234.584 C 1487.01 233.386 1471.12 234.016 1465.18 234.059 C 1462.83 243.248 1454.83 268.655 1456.02 276.517 C 1459.96 279.69 1475.76 278.543 1481.76 278.48 C 1497.63 277.373 1497.29 265.675 1507.1 258.389 L 1508.12 259.553 C 1507.51 272.466 1503.99 278.136 1493.39 284.916 C 1474.51 280.235 1436.76 283.779 1430.67 281.492 L 1430.27 280.076 C 1432.89 277.887 1439.09 276.738 1442.65 275.833 C 1445.99 265.882 1449.63 250.433 1452.5 239.974 C 1457.13 223.121 1462.59 204.515 1466.03 187.592 C 1461.81 186.654 1460.19 186.942 1457.24 184.309 L 1457.73 182.799 C 1467.78 178.208 1502.79 183.417 1513.97 179.327 z"/>
<path transform="translate(0,0)" fill="rgb(216,202,165)" d="M 1704.35 216.129 C 1731.97 214.752 1719.88 226.57 1730.77 234.652 C 1727.69 238.674 1691.1 251.915 1683.55 254.752 C 1682.67 284.209 1707.75 284.12 1720.16 262.56 C 1721.43 260.054 1720.72 260.864 1723.06 259.268 C 1726.31 260.788 1724.89 266.104 1723.27 268.312 C 1699.35 300.872 1655.65 280.461 1677.16 240.472 C 1683.57 228.551 1690.89 220.55 1704.35 216.129 z"/>
<path transform="translate(0,0)" fill="rgb(14,18,35)" d="M 1705.31 219.989 C 1719.62 220.771 1720.04 237.781 1707.18 241.097 C 1703.33 242.088 1697.6 244.752 1693.74 246.28 C 1690.77 247.578 1686.87 248.943 1683.77 250.134 C 1688.15 236.189 1691.94 227.522 1705.31 219.989 z"/>
<path transform="translate(0,0)" fill="rgb(216,202,165)" d="M 1972.13 216.222 C 1998.98 214.353 1988.54 223.304 1998.82 235.064 C 1996.23 238.913 1959.11 252.309 1952.24 254.972 C 1950.88 283.744 1976.92 284.196 1988.94 262.507 C 1989.16 261.843 1990.58 260.183 1991.09 259.534 L 1992.99 259.441 L 1994.06 261.398 C 1993.29 283.082 1949.84 294.746 1942.29 271.144 C 1935.09 248.668 1952.04 224.55 1972.13 216.222 z"/>
<path transform="translate(0,0)" fill="rgb(14,18,35)" d="M 1974.34 219.945 C 1986.71 220.426 1988.95 235.328 1979.16 239.862 C 1974.51 242.013 1967.65 244.264 1962.69 246.203 L 1952.61 250.214 C 1956.91 236.2 1960.92 227.174 1974.34 219.945 z"/>
<path transform="translate(0,0)" fill="rgb(216,202,165)" d="M 1543.12 216.161 C 1544.96 216.03 1546.81 215.94 1548.66 215.891 C 1562.19 215.59 1562.2 225.744 1562.29 236.169 C 1568.59 224.782 1580.65 209.576 1595.09 218.224 C 1598.39 220.206 1598.41 238.04 1588.43 236.952 C 1584.52 232.108 1588.76 224.762 1583.14 221.227 C 1568.57 223.491 1555.06 261.99 1563.58 274.464 C 1568.88 282.23 1578.46 268.833 1583.9 269.383 C 1584.7 275.68 1575.94 280.936 1571.21 283.391 C 1569.84 283.66 1568.46 283.872 1567.08 284.025 C 1553.71 285.397 1552.5 274.212 1551.56 264.118 C 1547.09 273.486 1540.33 282.371 1529.2 284.316 C 1518.95 286.108 1512.23 270.451 1518.39 264.952 C 1529.23 255.274 1525.4 273.709 1528.65 277.206 C 1546.31 283.276 1560.22 232.71 1548.57 222.737 C 1542.06 221.139 1538.06 226.942 1531.63 230.638 L 1530.39 229.973 L 1530.21 227.847 C 1532.76 222.402 1538.02 218.913 1543.12 216.161 z"/>
<path transform="translate(0,0)" fill="rgb(216,202,165)" d="M 1909.24 216.138 C 1916.52 215.872 1938.02 215.201 1936.25 228.278 C 1935.97 230.351 1934.73 231.459 1933.01 232.385 C 1926.28 230.712 1915.32 208.644 1903.5 225.979 C 1898.98 232.933 1908.08 242.352 1912.78 246.591 C 1930.08 262.175 1934.61 278.332 1906.35 283.956 C 1895.82 284.16 1889.23 282.067 1881.32 274.199 C 1879.74 272.623 1879.73 271.49 1879.96 269.476 C 1882.02 266.992 1882.63 266.757 1885.59 265.781 C 1890.18 266.821 1894.29 275.619 1899.57 278.214 C 1904.73 280.75 1913.55 278.885 1916.13 273.642 C 1918.09 257.851 1864.9 231.805 1909.24 216.138 z"/>
<path transform="translate(0,0)" fill="rgb(216,202,165)" d="M 1751.24 216.179 C 1756.88 215.731 1759.49 214.832 1763.41 219.088 C 1764.75 222.694 1763.76 226.566 1763.11 230.364 C 1790.14 199.052 1803.37 224.648 1790.09 234.543 C 1786.39 235.329 1787.75 235.536 1784.55 233.909 C 1781.13 228.185 1787.27 227.891 1782.35 222.452 C 1771.92 220.598 1761.77 241.492 1758.22 249.642 C 1755.18 257.616 1749 269.542 1752.88 276.979 C 1755.82 282.594 1745.24 285.829 1740.74 283.188 C 1733.91 272.881 1759 230.253 1752.4 223.045 C 1749.72 223.469 1741.19 229.461 1737.84 231.349 C 1742.29 223.107 1743.28 221.3 1751.24 216.179 z"/>
<path transform="translate(0,0)" fill="rgb(216,202,165)" d="M 1826.07 203.561 C 1828.99 203.886 1828.11 203.426 1830.23 205.13 C 1831.11 208.691 1828.54 214.143 1827.21 217.802 C 1830.98 217.68 1840.81 216.707 1843.22 219.758 L 1841.94 221.139 C 1837.31 223.075 1830.84 222.546 1825.7 222.493 C 1821.72 237.227 1815.37 252.205 1812.34 267.198 C 1811.55 271.127 1812.16 273.614 1815.05 276.278 C 1820.16 277.245 1827.26 271.456 1832.14 268.642 L 1833.73 269.369 L 1833.71 272.81 C 1816.71 291.267 1791.96 288.756 1803.78 258.969 C 1807.86 248.679 1811.71 234.356 1815.21 223.558 C 1811.84 223.043 1808.02 222.762 1805.3 220.77 L 1805.12 219.352 C 1808.07 217.23 1813.18 217.549 1816.96 217.435 C 1819.98 213.101 1823.14 208.027 1826.07 203.561 z"/>
<path transform="translate(0,0)" fill="rgb(216,202,165)" d="M 1862.13 216.121 C 1864.47 215.992 1869.83 215.509 1871.34 216.726 C 1884.71 227.501 1854 265.836 1860.22 275.898 C 1864.69 276.374 1867.2 272.093 1871.63 271.713 L 1871.71 273.425 C 1869.29 279.465 1866.13 280.674 1860.47 283.672 C 1859.38 283.835 1858.29 283.964 1857.2 284.057 C 1853.39 284.345 1852.18 283.265 1849.67 281.096 C 1843.24 267.879 1868.27 232.641 1863.6 223.689 C 1860.83 223.24 1856.26 226.292 1852.44 227.55 L 1851.83 226.507 L 1851.89 226.278 C 1853.4 220.744 1857.41 218.871 1862.13 216.121 z"/>
<path transform="translate(0,0)" fill="rgb(216,202,165)" d="M 1872.93 183.848 C 1877.63 183.396 1880.46 183.185 1883.6 187.212 C 1885.85 194.054 1881.49 197.417 1876.22 200.456 C 1872.02 200.417 1869.87 200.182 1866.84 197.411 C 1863.89 190.698 1867.73 187.69 1872.93 183.848 z"/>
</svg>